<?xml version="1.0" standalone="no"?>
<!DOCTYPE svg PUBLIC "-//W3C//DTD SVG 20010904//EN"
 "http://www.w3.org/TR/2001/REC-SVG-20010904/DTD/svg10.dtd">
<svg version="1.0" xmlns="http://www.w3.org/2000/svg"
 width="153.000000pt" height="120.000000pt" viewBox="0 0 153.000000 120.000000"
 preserveAspectRatio="xMidYMid meet">

<g transform="translate(0.000000,120.000000) scale(0.100000,-0.100000)"
fill="#000000" stroke="none">
<path d="M0 600 l0 -600 765 0 765 0 0 600 0 600 -765 0 -765 0 0 -600z m574
431 c8 -15 47 -58 87 -95 l71 -66 -43 -47 c-47 -51 -42 -63 20 -45 83 25 99
24 128 -9 l27 -30 9 23 8 23 19 -25 c10 -14 29 -51 42 -82 23 -60 32 -69 42
-43 3 8 0 14 -6 12 -6 -1 -14 9 -18 23 -14 51 -60 127 -96 163 l-38 36 45 40
c24 22 47 40 51 41 4 0 25 25 46 55 l40 56 34 -56 34 -56 -17 -67 c-9 -37 -26
-92 -38 -122 -23 -60 -26 -73 -11 -50 8 12 10 9 10 -11 0 -39 -30 -192 -41
-205 -5 -7 -3 -47 5 -104 13 -88 13 -95 -8 -145 -14 -34 -26 -50 -35 -47 -10
3 -12 -1 -9 -16 5 -18 4 -19 -13 -9 -10 6 -19 15 -19 20 0 4 -13 20 -28 35
-15 15 -29 32 -31 37 -2 6 -7 20 -12 32 -5 13 -6 30 -3 38 9 23 -5 65 -21 65
-21 0 -19 30 3 31 16 1 16 2 -1 6 -9 2 -14 9 -11 14 3 6 -1 18 -10 28 -9 10
-16 23 -14 29 3 9 -64 62 -77 62 -3 0 -5 -8 -5 -17 0 -15 -2 -16 -10 -3 -15
23 -12 -3 6 -56 17 -49 15 -61 -22 -191 -14 -49 -34 -72 -34 -38 0 8 -11 53
-25 100 -13 47 -34 136 -45 198 -11 61 -23 123 -26 137 -4 24 -4 24 11 6 21
-27 19 -6 -5 55 -11 28 -29 82 -40 120 l-19 69 32 54 c18 31 35 55 39 56 4 0
14 -13 22 -29z m136 -517 c0 -8 -4 -12 -10 -9 -5 3 -10 10 -10 16 0 5 5 9 10
9 6 0 10 -7 10 -16z m110 -157 c0 -18 -2 -19 -10 -7 -13 20 -13 43 0 35 6 -3
10 -16 10 -28z"/>
<path d="M614 703 c-9 -26 -22 -54 -27 -61 -7 -9 -6 -17 1 -24 9 -9 12 -9 12
1 0 7 9 34 20 60 19 43 24 47 50 43 17 -2 30 -11 33 -24 5 -18 7 -18 30 -3 23
15 28 14 76 -5 69 -27 70 -26 27 16 l-38 37 -70 -7 c-45 -4 -75 -2 -83 4 -10
8 -17 0 -31 -37z"/>
<path d="M702 644 c-14 -9 -22 -25 -22 -42 l1 -27 13 31 c17 38 33 45 82 34
51 -12 56 -4 7 9 -50 14 -54 14 -81 -5z"/>
</g>
</svg>
